<svg width="384" height="296" viewBox="0 0 384 296" xmlns="http://www.w3.org/2000/svg">
    <g opacity=".3">
        <path d="M81.663 155.146 62.726 96.312H-.226l50.669-36.518L31.506.453 81.663 36.97 132.843.453l-19.448 59.341 50.668 36.518h-62.44l-19.96 58.834zm91.356 131.295-13.452-41.795h-44.72l35.994-25.941-13.452-42.155 35.63 25.942 36.358-25.942-13.816 42.155 35.994 25.941h-44.356l-14.18 41.795zm167.367 9.132-9.966-30.96h-33.127l26.664-19.217-9.965-31.227 26.394 19.216 26.932-19.216-10.234 31.227 26.663 19.216h-32.858l-10.503 30.96z" opacity=".4" fill="#E9EBEE" fill-rule="evenodd"/>
    </g>
</svg>
