<svg width="36" height="36" viewBox="0 0 36 36" fill="none" xmlns="http://www.w3.org/2000/svg">
<rect width="36" height="36" rx="6" fill="url(#paint0_linear_1143_3169)"/>
<path d="M7.48725 20.6028H6.13967V18.6812H5.26886V20.5979H3.89209V15.6503H5.26886V17.499H6.13967V15.6503H7.48725V20.6028ZM13.6559 20.6223C15.0327 20.6223 16.1565 19.4741 16.1565 18.0828C16.1565 16.6622 15.0327 15.5676 13.6559 15.5676C12.2597 15.5676 11.5543 16.5844 11.384 16.993C11.384 16.3801 10.7711 15.6455 10.0608 15.6455H7.76455V20.5979H9.9051C10.7759 20.5979 11.3889 19.8536 11.3889 19.2017C11.5786 19.6104 12.2597 20.6223 13.6559 20.6223ZM9.72997 18.6131C9.92943 18.6131 10.09 18.8076 10.09 19.0266C10.09 19.2601 9.92943 19.4498 9.72997 19.4498H9.04888V18.6131H9.72997ZM9.72997 16.7547C9.92943 16.7547 10.09 16.9493 10.09 17.1682C10.09 17.3871 9.92943 17.5817 9.72997 17.5817H9.04888V16.7547H9.72997ZM10.6348 18.0828C10.7954 18.073 11.0532 17.8882 11.1554 17.7812C11.1165 17.9125 11.1165 18.3309 11.1554 18.4622C11.0435 18.3017 10.7954 18.1071 10.6348 18.0828ZM12.4008 18.0828C12.4008 17.3871 12.9651 16.8228 13.6657 16.8276C14.3662 16.8325 14.9257 17.4017 14.9159 18.1022C14.9062 18.7931 14.3468 19.3477 13.6608 19.3477C12.9603 19.3428 12.4008 18.7833 12.4008 18.0828ZM13.6559 19.0752C14.1911 19.0752 14.6435 18.6325 14.6435 18.0828C14.6435 17.533 14.1911 17.0952 13.6559 17.0952C13.1062 17.0952 12.6635 17.533 12.6635 18.0828C12.6635 18.6325 13.1062 19.0752 13.6559 19.0752ZM23.3468 17.4017C23.3225 16.2049 22.476 15.5676 21.4349 15.5676C20.8608 15.5676 20.35 15.7574 19.9998 16.132C19.6446 15.7574 19.1338 15.5676 18.5598 15.5676C17.5187 15.5676 16.6722 16.2049 16.643 17.4066V20.1504C16.643 20.4033 16.8473 20.6077 17.1003 20.6077H17.5284C17.5722 20.6077 17.6062 20.5736 17.6062 20.5298V17.4163C17.6257 16.8228 18.0441 16.5114 18.5598 16.5114C19.0754 16.5114 19.4987 16.8228 19.5133 17.4163V20.1504C19.5133 20.4033 19.7176 20.6077 19.9706 20.6077H20.3987C20.4425 20.6077 20.4765 20.5736 20.4765 20.5298V17.4163C20.496 16.8228 20.9144 16.5114 21.43 16.5114C21.9457 16.5114 22.369 16.8228 22.3836 17.4163V20.1504C22.3836 20.4033 22.5879 20.6077 22.8409 20.6077H23.269C23.3128 20.6077 23.3468 20.5736 23.3468 20.5298V17.4163C23.3517 17.4114 23.3468 17.4066 23.3468 17.4017ZM33.0231 15.6503H32.2934C32.0939 15.6503 31.9042 15.7525 31.7923 15.9179L30.9847 17.1147C30.8777 17.2703 30.649 17.2703 30.5469 17.1147L29.7393 15.9179C29.6274 15.7525 29.4377 15.6503 29.2382 15.6503H28.5085C28.4647 15.6503 28.4355 15.699 28.4598 15.7379L29.8998 17.8736C30.002 18.0293 30.002 18.2287 29.8998 18.3844L28.4598 20.5152C28.4355 20.5541 28.4598 20.6028 28.5085 20.6028H29.2382C29.4377 20.6028 29.6274 20.5006 29.7393 20.3352L30.5469 19.1385C30.6539 18.9828 30.8825 18.9828 30.9847 19.1385L31.7923 20.3352C31.9042 20.5006 32.0939 20.6028 32.2934 20.6028H33.0231C33.0669 20.6028 33.0961 20.5541 33.0717 20.5152L31.6317 18.3795C31.5296 18.2239 31.5296 18.0244 31.6317 17.8687L33.0717 15.733C33.0961 15.699 33.0717 15.6503 33.0231 15.6503ZM28.129 15.6503H27.7009C27.482 15.6503 27.302 15.806 27.2582 16.0103C26.8739 15.7184 26.3971 15.5725 25.8766 15.5725C24.6117 15.5676 23.5949 16.4433 23.5949 18.0974C23.5949 19.7514 24.6165 20.6271 25.8717 20.6271C26.3874 20.6271 26.8641 20.4812 27.2436 20.1941C27.2631 20.4277 27.4576 20.6077 27.696 20.6077H28.1241C28.1679 20.6077 28.202 20.5736 28.202 20.5298V15.7233C28.202 15.6844 28.1679 15.6503 28.129 15.6503ZM25.8717 19.6833C25.1225 19.6833 24.5095 19.1336 24.5095 18.0974C24.5095 17.0611 25.1176 16.5114 25.8717 16.5114C26.6257 16.5114 27.2339 17.0611 27.2339 18.0974C27.2339 19.1336 26.6257 19.6833 25.8717 19.6833Z" fill="white"/>
<defs>
<linearGradient id="paint0_linear_1143_3169" x1="60.8108" y1="-20.4324" x2="3.89189" y2="36" gradientUnits="userSpaceOnUse">
<stop stop-color="#7F87A0"/>
<stop offset="1" stop-color="#314176"/>
</linearGradient>
</defs>
</svg>
