<svg width="36" height="36" viewBox="0 0 36 36" fill="none" xmlns="http://www.w3.org/2000/svg">
<path d="M7.98926 0.5H28.0137C32.1321 0.5 35.5029 3.87087 35.5029 7.98926V28.0137C35.5029 32.1321 32.1321 35.5029 28.0137 35.5029H7.98926C3.87087 35.5029 0.5 32.1321 0.5 28.0137V7.98926C0.5 3.87087 3.87087 0.5 7.98926 0.5Z" fill="white" stroke="#1CE783"/>
<path d="M21.8629 22.7743H24.2479V12.9014H21.8629V22.7743ZM17.6752 19.9594C17.6752 20.306 17.384 20.5972 17.0374 20.5972H15.6507C15.304 20.5972 15.0129 20.306 15.0129 19.9594V15.9797H12.6278V20.1535C12.6278 21.8591 13.7233 22.7604 15.3318 22.7604H17.6613C19.145 22.7604 20.0464 21.6927 20.0464 20.1535V15.9797H17.6613C17.6752 15.9797 17.6752 19.8346 17.6752 19.9594ZM31.084 15.9797V19.9594C31.084 20.306 30.7929 20.5972 30.4462 20.5972H29.0595C28.7129 20.5972 28.4217 20.306 28.4217 19.9594V15.9797H26.0367V20.1535C26.0367 21.8591 27.1321 22.7604 28.7406 22.7604H31.0702C32.5539 22.7604 33.4552 21.6927 33.4552 20.1535V15.9797H31.084ZM8.23217 15.9797H6.70686C6.16607 15.9797 5.9026 16.1184 5.9026 16.1184V12.9014H3.51758V22.7604H5.88874V18.7946C5.88874 18.4479 6.17993 18.1567 6.52659 18.1567H7.91324C8.2599 18.1567 8.55109 18.4479 8.55109 18.7946V22.7743H10.9361V18.4757C10.9361 16.673 9.72974 15.9797 8.23217 15.9797Z" fill="#1CE783"/>
</svg>
