<svg width="36" height="36" viewBox="0 0 36 36" fill="none" xmlns="http://www.w3.org/2000/svg">
<g clip-path="url(#clip0_1143_3171)">
<rect width="36" height="36" rx="6" fill="white"/>
<rect width="36" height="36" fill="url(#paint0_linear_1143_3171)"/>
<path d="M17.8633 22.2311V22.2161C17.8783 22.1973 17.9045 22.1861 17.927 22.1898C18.0357 22.1861 18.1407 22.1861 18.2494 22.1898C18.2719 22.1898 18.2981 22.1973 18.3131 22.2161V22.2311H17.8633Z" fill="#D1EFFA"/>
<path d="M18.313 22.2159C18.163 22.2121 18.0131 22.2121 17.8631 22.2159C17.657 22.2046 17.4508 22.1971 17.2446 22.1822C16.6973 22.1409 16.1538 22.0584 15.6215 21.9347C13.7809 21.5074 12.1653 20.649 10.7558 19.4007C10.6246 19.2845 10.5009 19.1645 10.3734 19.0446C10.3434 19.0183 10.3172 18.9808 10.3022 18.9434C10.2797 18.8909 10.2909 18.8346 10.3284 18.7934C10.3659 18.7522 10.4259 18.7372 10.4784 18.7597C10.5121 18.7747 10.5459 18.7897 10.5758 18.8084C11.9216 19.6406 13.3911 20.2479 14.9317 20.6077C15.449 20.7277 15.9701 20.8214 16.4949 20.8889C17.2484 20.9826 18.0093 21.0163 18.7666 20.9901C19.1752 20.9788 19.58 20.9414 19.9849 20.8889C20.9295 20.7689 21.8629 20.5553 22.7663 20.2554C23.2424 20.0979 23.7072 19.918 24.1608 19.7081C24.2283 19.6706 24.3108 19.6593 24.3857 19.6781C24.5094 19.7081 24.5844 19.8355 24.5544 19.9592C24.5507 19.9742 24.5432 19.993 24.5357 20.008C24.5057 20.0642 24.4645 20.1129 24.412 20.1504C23.9809 20.4878 23.5161 20.7839 23.025 21.0313C22.0991 21.4999 21.1094 21.8335 20.0898 22.0247C19.5013 22.1297 18.909 22.1934 18.313 22.2159ZM12.7613 14.6175C12.855 14.5612 12.9525 14.5012 13.0537 14.4488C13.3161 14.3138 13.6085 14.2463 13.9046 14.2613C14.1183 14.2726 14.3132 14.3326 14.4632 14.49C14.6056 14.6362 14.6581 14.8161 14.6731 15.0111C14.6768 15.0523 14.6768 15.0935 14.6768 15.1385V17.0803C14.6768 17.249 14.6543 17.2715 14.4856 17.2715H14.0283C13.9983 17.2715 13.9683 17.2715 13.9384 17.2677C13.8934 17.264 13.8559 17.2265 13.8484 17.1815C13.8409 17.1403 13.8409 17.099 13.8409 17.0578V15.3222C13.8446 15.251 13.8371 15.1835 13.8184 15.116C13.7884 14.9998 13.6834 14.9173 13.5635 14.9098C13.3423 14.8948 13.1212 14.9398 12.9187 15.0335C12.8887 15.041 12.87 15.071 12.8737 15.101V17.0728C12.8737 17.1103 12.8737 17.144 12.8662 17.1815C12.8662 17.234 12.825 17.2715 12.7725 17.2715C12.7163 17.2752 12.6601 17.2752 12.6001 17.2752H12.2027C12.064 17.2752 12.0341 17.2415 12.0341 17.1028V15.3297C12.0341 15.266 12.0303 15.1985 12.0153 15.1348C11.9891 15.0073 11.8804 14.9173 11.7529 14.9098C11.528 14.8948 11.2993 14.9398 11.0969 15.0373C11.0669 15.0448 11.0482 15.0785 11.0557 15.1085V17.1065C11.0557 17.2452 11.0257 17.2752 10.887 17.2752H10.3847C10.2535 17.2752 10.2197 17.2377 10.2197 17.1103V14.5087C10.2197 14.4788 10.2235 14.4488 10.231 14.4188C10.246 14.3738 10.2909 14.3476 10.3359 14.3476H10.8045C10.872 14.3476 10.9132 14.3888 10.9357 14.4525C10.9545 14.505 10.9657 14.5537 10.9844 14.61C11.0219 14.61 11.0444 14.5837 11.0707 14.5687C11.2768 14.4413 11.4943 14.3326 11.7379 14.2876C11.9253 14.2501 12.1128 14.2501 12.3002 14.2876C12.4764 14.3251 12.6338 14.43 12.735 14.58C12.7425 14.5912 12.75 14.5987 12.7575 14.6062C12.7538 14.61 12.7575 14.61 12.7613 14.6175Z" fill="white"/>
<path d="M20.5319 16.4844C20.5543 16.4094 20.5768 16.3382 20.5993 16.2632C20.7718 15.6822 20.9442 15.1049 21.1166 14.5239L21.1391 14.4564C21.1579 14.3889 21.2216 14.3477 21.2891 14.3477H21.8589C22.0013 14.3477 22.0313 14.3889 21.9826 14.5239L21.7576 15.1199C21.5065 15.7722 21.2553 16.4282 21.0042 17.0804C20.9967 17.1029 20.9854 17.1254 20.9779 17.1479C20.9517 17.2266 20.873 17.2791 20.7905 17.2716C20.6256 17.2679 20.4606 17.2679 20.2957 17.2716C20.1795 17.2754 20.112 17.2229 20.0708 17.1179C19.9771 16.8705 19.8796 16.6194 19.7859 16.372C19.561 15.7834 19.3323 15.1949 19.1074 14.6026C19.0849 14.5576 19.0699 14.5051 19.0586 14.4564C19.0474 14.3814 19.0736 14.344 19.1486 14.344C19.3623 14.3402 19.576 14.344 19.7859 14.344C19.8758 14.344 19.9171 14.4039 19.9396 14.4826C19.9808 14.6251 20.022 14.7713 20.067 14.9137C20.2207 15.4348 20.3707 15.9596 20.5244 16.4807C20.5206 16.4844 20.5244 16.4844 20.5319 16.4844Z" fill="white"/>
<path d="M7.22064 14.7601C7.24689 14.7526 7.26938 14.7376 7.28437 14.7151C7.35185 14.6476 7.42307 14.5839 7.49804 14.5239C7.69297 14.374 7.93663 14.299 8.18029 14.3178C8.27775 14.3215 8.31149 14.3515 8.31899 14.4452C8.32649 14.5727 8.32274 14.7039 8.32274 14.8313C8.32649 14.8838 8.32274 14.9325 8.31524 14.985C8.30025 15.0525 8.274 15.0787 8.20653 15.0862C8.15405 15.09 8.10532 15.0862 8.05284 15.0825C7.80168 15.06 7.55802 15.1087 7.32186 15.1875C7.26938 15.2062 7.26938 15.2437 7.26938 15.2849V17.0842C7.26938 17.118 7.26938 17.148 7.26563 17.1817C7.26188 17.2304 7.22439 17.2679 7.17566 17.2679C7.14942 17.2717 7.11943 17.2717 7.09319 17.2717H6.60587C6.57963 17.2717 6.54964 17.2717 6.5234 17.2679C6.47467 17.2642 6.43718 17.2229 6.43344 17.1742C6.42969 17.1442 6.42969 17.1142 6.42969 17.0842V14.5352C6.42969 14.3628 6.44843 14.344 6.62087 14.344H6.98073C7.0782 14.344 7.12318 14.3777 7.14942 14.4715C7.17566 14.5652 7.19815 14.6589 7.22064 14.7601ZM24.7567 18.5612C25.0041 18.5687 25.2477 18.5837 25.4876 18.6474C25.5551 18.6662 25.6188 18.6887 25.6826 18.7186C25.7688 18.7524 25.825 18.8349 25.8363 18.9248C25.8513 19.0298 25.855 19.1385 25.8475 19.2472C25.7988 19.8882 25.6001 20.5067 25.2702 21.0578C25.1503 21.2565 25.0041 21.4364 24.8354 21.5938C24.8016 21.6276 24.7604 21.6538 24.7154 21.6688C24.6442 21.6875 24.5992 21.6501 24.5955 21.5788C24.5992 21.5413 24.6067 21.5039 24.6217 21.4664C24.7529 21.114 24.8804 20.7654 24.9816 20.4018C25.0416 20.2031 25.0828 20.0007 25.109 19.7945C25.1165 19.7195 25.1203 19.6446 25.1128 19.5696C25.109 19.4421 25.0266 19.3334 24.9029 19.2959C24.7866 19.2584 24.6667 19.236 24.543 19.2285C24.1981 19.2135 23.8532 19.2285 23.5121 19.2734L23.0585 19.3297C23.0098 19.3334 22.9648 19.3297 22.9386 19.2847C22.9123 19.2397 22.9236 19.1947 22.9498 19.1497C22.9798 19.1085 23.0173 19.071 23.0623 19.0448C23.3397 18.8461 23.6508 18.7261 23.9807 18.6474C24.2356 18.5949 24.4943 18.5687 24.7567 18.5612Z" fill="white"/>
<path d="M23.1864 15.8096V17.1591C23.1789 17.2341 23.1451 17.2678 23.0702 17.2716C22.8677 17.2753 22.6691 17.2753 22.4666 17.2716C22.3917 17.2716 22.3579 17.2341 22.3504 17.1629C22.3467 17.1404 22.3467 17.1141 22.3467 17.0916V14.4976C22.3504 14.3814 22.3804 14.3477 22.4966 14.3477H23.0364C23.1526 14.3477 23.1864 14.3814 23.1864 14.4976V15.8096Z" fill="white"/>
<path d="M8.68288 15.8022V14.4714C8.68663 14.3814 8.72036 14.3477 8.81033 14.3439C9.00526 14.3402 9.20019 14.3402 9.39512 14.3439C9.48133 14.3439 9.50757 14.3702 9.51507 14.4564C9.51882 14.4901 9.51882 14.5201 9.51882 14.5539V17.0504C9.51882 17.0917 9.51507 17.1329 9.51132 17.1741C9.50757 17.2229 9.47009 17.2566 9.42136 17.2604C9.39886 17.2641 9.38012 17.2641 9.35763 17.2641H8.83657C8.81783 17.2641 8.80283 17.2641 8.78409 17.2604C8.73161 17.2566 8.68663 17.2154 8.68288 17.1629C8.67913 17.1329 8.67913 17.1029 8.67913 17.0729C8.68288 16.6568 8.68288 16.2295 8.68288 15.8022ZM9.11772 13.0019C9.1777 12.9982 9.23767 13.0094 9.2939 13.0282C9.49633 13.0957 9.60129 13.2718 9.58255 13.5005C9.56755 13.6954 9.42136 13.8529 9.22643 13.8829C9.14396 13.8979 9.05774 13.8979 8.97527 13.8829C8.7616 13.8416 8.60416 13.6842 8.61915 13.4143C8.64164 13.1481 8.81783 13.0019 9.11772 13.0019Z" fill="white"/>
<path d="M22.7701 13.0019C22.8451 12.9944 22.92 13.0094 22.9913 13.0394C23.1375 13.0956 23.2387 13.2306 23.2462 13.388C23.2762 13.7291 23.0475 13.9016 22.7439 13.8941C22.7026 13.8941 22.6614 13.8866 22.6202 13.8791C22.3877 13.8229 22.2678 13.6429 22.2903 13.3843C22.309 13.1781 22.4702 13.0244 22.6914 13.0057C22.7176 13.0019 22.7439 12.9982 22.7701 13.0019Z" fill="white"/>
<path d="M5.87519 15.4947C5.86019 15.2997 5.80771 15.1086 5.72899 14.9324C5.5753 14.61 5.33913 14.3738 4.97927 14.2914C4.56692 14.2014 4.19581 14.2914 3.85843 14.5425C3.83594 14.565 3.8097 14.5838 3.77971 14.5987C3.77221 14.595 3.76472 14.5912 3.76472 14.5875C3.75347 14.55 3.74597 14.5125 3.73473 14.475C3.70474 14.3813 3.66725 14.3476 3.56604 14.3476C3.45358 14.3476 3.33738 14.3513 3.22492 14.3476C3.1387 14.3438 3.05998 14.3551 3 14.4226C3 15.7346 3 17.0503 3.00375 18.3586C3.05248 18.4373 3.12745 18.4523 3.21367 18.4486C3.34862 18.4448 3.48357 18.4486 3.61852 18.4486C3.85468 18.4486 3.85468 18.4486 3.85468 18.2162V17.1478C3.85468 17.1216 3.84344 17.0916 3.86968 17.0691C4.05711 17.2153 4.28577 17.3052 4.52194 17.3277C4.85181 17.3615 5.1517 17.279 5.40286 17.0541C5.58654 16.8854 5.72149 16.668 5.79272 16.4281C5.89393 16.1207 5.90143 15.8095 5.87519 15.4947ZM4.97927 16.2706C4.95303 16.3868 4.89305 16.4918 4.80683 16.5705C4.70937 16.653 4.58941 16.7017 4.46196 16.7017C4.27078 16.713 4.08335 16.6717 3.91466 16.5818C3.87343 16.563 3.84719 16.5218 3.85094 16.4768V15.7983C3.85094 15.5734 3.85468 15.3485 3.85094 15.1236C3.84719 15.0711 3.87718 15.0261 3.92591 15.0073C4.13208 14.9099 4.34575 14.8649 4.57067 14.9099C4.72811 14.9324 4.86306 15.0336 4.92679 15.1798C4.98302 15.2997 5.01675 15.4309 5.02425 15.5621C5.04674 15.8021 5.04674 16.042 4.97927 16.2706Z" fill="white"/>
<path d="M32.9922 16.0797C32.9922 16.0759 32.9922 16.0759 32.9922 16.0797V16.0797ZM32.996 15.5774V15.5924C32.981 15.5774 32.9735 15.5549 32.981 15.5361V15.5062C32.981 15.5062 32.981 15.5024 32.9847 15.5024H32.981V15.4649H32.9885C32.9885 15.4612 32.9847 15.4612 32.9847 15.4574C32.9772 15.3862 32.9622 15.315 32.9435 15.2475C32.8048 14.7527 32.4936 14.4266 31.9876 14.2991C31.7514 14.2429 31.5115 14.2354 31.2716 14.2729C30.7655 14.3478 30.4019 14.6177 30.2257 15.0976C30.0533 15.5549 30.057 16.0572 30.2295 16.5145C30.3794 16.9306 30.6793 17.193 31.1104 17.3017C31.3391 17.358 31.579 17.373 31.8151 17.3392C32.6024 17.2455 32.9285 16.6495 32.981 16.1322H32.9772V16.0797C32.9735 16.0572 32.9697 16.0385 32.9922 16.0235V16.031C32.9922 16.0272 32.996 16.0197 32.9997 16.016V15.5849C32.9997 15.5811 32.996 15.5811 32.996 15.5774ZM32.0963 16.2896C32.0738 16.3683 32.0401 16.4396 31.9913 16.507C31.9089 16.6232 31.7777 16.6982 31.6352 16.7095C31.564 16.717 31.4928 16.717 31.4215 16.702C31.2641 16.672 31.1329 16.567 31.0692 16.4208C31.0129 16.3046 30.9792 16.1772 30.968 16.0497C30.9492 15.8285 30.9455 15.6074 30.9979 15.3899C31.0167 15.3037 31.0542 15.2175 31.0992 15.1425C31.1816 15.0076 31.3241 14.9214 31.4815 14.9101C31.5527 14.9026 31.624 14.9026 31.6952 14.9176C31.8451 14.9476 31.9688 15.0451 32.0363 15.1838C32.1 15.315 32.1375 15.4612 32.145 15.6074C32.1488 15.6748 32.1525 15.7423 32.1488 15.8098C32.16 15.9747 32.1413 16.1359 32.0963 16.2896ZM26.4246 13.0283H25.9036C25.7611 13.0283 25.7349 13.0546 25.7349 13.197V14.4116C25.7349 14.4378 25.7461 14.464 25.7274 14.4903C25.6937 14.4865 25.6749 14.464 25.6487 14.449C25.2588 14.2204 24.8502 14.1791 24.4379 14.3703C24.1492 14.5053 23.9693 14.7489 23.8531 15.0376C23.7406 15.315 23.7144 15.6074 23.7219 15.9035C23.7219 16.1809 23.7856 16.4546 23.9093 16.702C24.0518 16.9756 24.2579 17.1855 24.5578 17.2755C24.9664 17.403 25.3488 17.3392 25.6974 17.0806C25.7236 17.0656 25.7386 17.0393 25.7724 17.0318C25.7911 17.0731 25.8061 17.1181 25.8136 17.163C25.8286 17.223 25.8811 17.2643 25.9448 17.2643H26.0348C26.1697 17.2643 26.3009 17.268 26.4321 17.2643C26.5371 17.2643 26.5671 17.2305 26.5708 17.1218V13.1708C26.5671 13.0546 26.5371 13.0283 26.4246 13.0283ZM25.7386 15.7873V16.4695C25.7461 16.5145 25.7199 16.5558 25.6787 16.5745C25.4987 16.6757 25.2926 16.717 25.0901 16.687C24.9177 16.6682 24.7678 16.5633 24.689 16.4096C24.6291 16.2896 24.5953 16.1622 24.5841 16.031C24.5541 15.7948 24.5728 15.5549 24.6291 15.3262C24.6478 15.2625 24.6703 15.2025 24.704 15.1425C24.7827 14.9963 24.9327 14.9026 25.0976 14.8914C25.2963 14.8726 25.495 14.9101 25.6749 14.9926C25.7199 15.0076 25.7461 15.0526 25.7424 15.1013C25.7349 15.3337 25.7386 15.5586 25.7386 15.7873Z" fill="white"/>
<path d="M16.0448 16.0459C16.3259 16.0983 16.6146 16.1021 16.8957 16.0571C17.0606 16.0346 17.2181 15.9859 17.3643 15.9072C17.533 15.8097 17.6567 15.6747 17.7092 15.4873C17.8404 15.015 17.6379 14.5389 17.1469 14.3627C16.907 14.284 16.652 14.2578 16.4009 14.2915C15.8086 14.359 15.4225 14.6851 15.2463 15.2511C15.1226 15.6373 15.1376 16.0309 15.2388 16.4207C15.37 16.9193 15.6999 17.2154 16.1985 17.3204C16.4834 17.3841 16.772 17.3729 17.0569 17.3279C17.2068 17.3016 17.3568 17.2642 17.4992 17.2079C17.5855 17.1742 17.6304 17.1217 17.6267 17.0242C17.6229 16.9343 17.6267 16.8406 17.6267 16.7468C17.6267 16.6344 17.5817 16.6006 17.473 16.6269C17.3643 16.6531 17.2593 16.6756 17.1506 16.6981C16.9182 16.7468 16.6783 16.7468 16.4459 16.7056C16.1272 16.6419 15.9211 16.3682 15.9398 16.0309C15.9736 16.0346 16.011 16.0384 16.0448 16.0459ZM15.9511 15.4723C15.9623 15.3824 15.9885 15.2961 16.0223 15.2137C16.1347 14.94 16.3709 14.8463 16.6108 14.8613C16.6783 14.865 16.7458 14.88 16.8095 14.9063C16.907 14.9475 16.9707 15.0375 16.9819 15.1424C16.9932 15.2062 16.9894 15.2736 16.9707 15.3374C16.9257 15.4723 16.817 15.5285 16.6858 15.5548C16.6071 15.5735 16.5246 15.581 16.4421 15.5735C16.2959 15.5735 16.146 15.5623 15.9998 15.5398C15.9436 15.5323 15.9436 15.5323 15.9511 15.4723Z" fill="white"/>
<path d="M28.6891 16.0832C28.9065 16.0682 29.1239 16.027 29.3189 15.922C29.5175 15.8245 29.6562 15.6409 29.6975 15.4234C29.7237 15.2885 29.7237 15.1461 29.6937 15.0111C29.615 14.6737 29.4013 14.4638 29.0789 14.3551C28.899 14.2989 28.7078 14.2764 28.5204 14.2839C27.8906 14.2989 27.4108 14.6175 27.2159 15.2473C27.0847 15.6634 27.1034 16.087 27.2309 16.503C27.3621 16.9304 27.662 17.189 28.0893 17.3053C28.273 17.3502 28.4642 17.369 28.6516 17.3615C28.9253 17.3577 29.1989 17.3053 29.4576 17.2078C29.5663 17.1666 29.5925 17.1291 29.5925 17.0129V16.743C29.5888 16.6342 29.5438 16.5968 29.4351 16.623C29.3526 16.6455 29.2739 16.6642 29.1914 16.683C28.9402 16.743 28.6778 16.7542 28.4229 16.7092C28.168 16.6605 27.9956 16.5143 27.9281 16.2594C27.9094 16.1844 27.8944 16.1094 27.8869 16.0307C27.9056 16.0307 27.9244 16.0307 27.9394 16.0382C28.1868 16.0832 28.4379 16.1019 28.6891 16.0832ZM27.9056 15.4834C27.9319 15.3372 27.9656 15.1948 28.0556 15.0748C28.1943 14.8911 28.3855 14.8387 28.6029 14.8612C28.6216 14.8612 28.6366 14.8687 28.6554 14.8687C28.9178 14.9099 28.9815 15.1198 28.9327 15.3222C28.8953 15.4722 28.7716 15.5284 28.6329 15.5546C28.5579 15.5696 28.4792 15.5771 28.4004 15.5734C28.2468 15.5696 28.0968 15.5584 27.9469 15.5359C27.9131 15.5322 27.8981 15.5172 27.9056 15.4834Z" fill="white"/>
</g>
<defs>
<linearGradient id="paint0_linear_1143_3171" x1="1.16129" y1="37.1613" x2="36" y2="-1.94676e-07" gradientUnits="userSpaceOnUse">
<stop stop-color="#002665"/>
<stop offset="1" stop-color="#00B4EB"/>
</linearGradient>
<clipPath id="clip0_1143_3171">
<rect width="36" height="36" rx="6" fill="white"/>
</clipPath>
</defs>
</svg>
