<?xml version="1.0" standalone="no"?>
<!DOCTYPE svg PUBLIC "-//W3C//DTD SVG 1.1//EN" "http://www.w3.org/Graphics/SVG/1.1/DTD/svg11.dtd" >
<svg xmlns="http://www.w3.org/2000/svg">
<metadata>Generated by IcoMoon</metadata>
<defs>
<font id="wmnew" horiz-adv-x="1024">
<font-face units-per-em="1024" ascent="960" descent="-64" />
<missing-glyph horiz-adv-x="1024" />
<glyph unicode="&#x20;" horiz-adv-x="512" d="" />
<glyph unicode="&#xe900;" glyph-name="video-call" d="M4.563 850.274c0 58.069 47.074 105.143 105.143 105.143h164.571c17.673 0 32-14.327 32-32s-14.327-32-32-32h-164.571c-22.723 0-41.143-18.42-41.143-41.143v-804.573c0-22.72 18.42-41.139 41.143-41.139h511.999c22.724 0 41.143 18.419 41.143 41.139v292.574c0 17.673 14.327 32 32 32s32-14.327 32-32v-292.574c0-58.069-47.074-105.139-105.143-105.139h-511.999c-58.068 0-105.143 47.070-105.143 105.139v804.573zM297.146 155.418c0 17.673 14.327 32 32 32h73.143c17.673 0 31.998-14.327 31.998-32s-14.325-32-31.998-32h-73.143c-17.673 0-32 14.327-32 32zM691.264 885.333c-74.901 0-135.62-60.719-135.62-135.619s60.719-135.619 135.62-135.619c74.901 0 135.62 60.719 135.62 135.619s-60.719 135.619-135.62 135.619zM491.644 749.714c0 110.246 89.374 199.619 199.62 199.619s199.62-89.373 199.62-199.619c0-110.247-89.374-199.619-199.62-199.619s-199.62 89.372-199.62 199.619zM448.149 421.675c67.115 59.277 153.57 91.994 243.11 91.994 89.545 0 176-32.717 243.115-91.994 13.244-11.699 14.498-31.923 2.799-45.167-11.699-13.248-31.923-14.502-45.167-2.799-55.42 48.943-126.81 75.959-200.747 75.959s-145.327-27.017-200.742-75.959c-13.244-11.703-33.468-10.449-45.167 2.799-11.699 13.244-10.445 33.468 2.799 45.167z" />
<glyph unicode="&#xe901;" glyph-name="billing" horiz-adv-x="838" d="M128 672c0 19.28 15.629 34.909 34.909 34.909h256c19.28 0 34.909-15.629 34.909-34.909s-15.629-34.909-34.909-34.909h-256c-19.28 0-34.909 15.629-34.909 34.909zM128 480c0 19.28 15.629 34.909 34.909 34.909h160c19.28 0 34.909-15.629 34.909-34.909s-15.629-34.909-34.909-34.909h-160c-19.28 0-34.909 15.63-34.909 34.909zM128 288c0 19.279 15.629 34.909 34.909 34.909h160c19.28 0 34.909-15.63 34.909-34.909s-15.629-34.909-34.909-34.909h-160c-19.28 0-34.909 15.63-34.909 34.909zM576 672c0 19.28 15.63 34.909 34.909 34.909h64c19.279 0 34.909-15.629 34.909-34.909s-15.63-34.909-34.909-34.909h-64c-19.279 0-34.909 15.629-34.909 34.909zM608.312 439.445c-8.765 4.101-18.381 6.042-28.048 5.669-0.447-0.019-0.898-0.028-1.345-0.028-17.65 0-32.107-5.306-41.332-12.176-9.146-6.814-11.655-13.675-11.655-18.618 0-5.004 2.569-12.004 11.776-18.925 9.253-6.954 23.682-12.302 41.211-12.302 31.227 0 60.746-9.546 83.219-26.512 22.454-16.957 39.582-42.98 39.582-74.529s-17.129-57.572-39.582-74.529c-22.309-16.845-51.558-26.373-82.534-26.512-20.666-0.712-41.207 3.528-59.909 12.376-18.911 8.946-35.379 22.342-47.993 39.033-11.621 15.383-8.571 37.278 6.81 48.896 15.383 11.622 37.278 8.574 48.901-6.81 5.818-7.703 13.414-13.88 22.142-18.008s18.32-6.083 27.969-5.697c0.465 0.019 0.931 0.028 1.396 0.028 17.408 0 31.837 5.385 41.151 12.414 9.332 7.047 11.832 14.094 11.832 18.809s-2.499 11.762-11.832 18.809c-9.314 7.028-23.743 12.414-41.151 12.414-31.116 0-60.63 9.374-83.163 26.312-22.584 16.975-39.642 43.041-39.642 74.733 0 31.744 17.118 57.74 39.758 74.608 22.402 16.686 51.628 25.875 82.381 26.005 20.559 0.687 40.997-3.498 59.639-12.217 18.846-8.817 35.314-22.012 48.026-38.485 11.776-15.267 8.946-37.185-6.316-48.966-15.267-11.776-37.185-8.951-48.966 6.316-5.907 7.657-13.563 13.791-22.323 17.892zM578.909 250.796c19.279 0 34.909-15.63 34.909-34.909v-43.948c0-19.279-15.63-34.909-34.909-34.909s-34.909 15.63-34.909 34.909v43.948c0 19.279 15.63 34.909 34.909 34.909zM578.909 558.852c19.279 0 34.909-15.629 34.909-34.909v-43.948c0-19.279-15.63-34.909-34.909-34.909s-34.909 15.63-34.909 34.909v43.948c0 19.28 15.63 34.909 34.909 34.909zM21.55 960.251c13.045 5.403 28.060 2.417 38.044-7.567l103.316-103.315 103.316 103.315c13.633 13.633 35.736 13.633 49.369 0l103.316-103.315 103.317 103.315c13.633 13.633 35.733 13.633 49.366 0l103.317-103.315 103.317 103.315c9.984 9.984 25 12.971 38.042 7.567 13.047-5.403 21.551-18.132 21.551-32.252v-959.999c0-14.122-8.504-26.847-21.551-32.251-13.042-5.404-28.058-2.42-38.042 7.564l-103.317 103.317-103.317-103.317c-13.633-13.629-35.733-13.629-49.366 0l-103.317 103.317-103.316-103.317c-13.633-13.629-35.736-13.629-49.369 0l-103.316 103.317-103.316-103.317c-9.984-9.984-24.999-12.968-38.044-7.564s-21.55 18.129-21.55 32.251v959.999c0 14.119 8.505 26.849 21.55 32.252zM69.818 843.721v-791.446l68.406 68.408c13.633 13.633 35.736 13.633 49.369 0l103.316-103.317 103.316 103.317c13.633 13.633 35.736 13.633 49.369 0l103.316-103.317 103.317 103.317c13.633 13.633 35.733 13.633 49.366 0l68.408-68.408v791.446l-68.408-68.406c-13.633-13.633-35.733-13.633-49.366 0l-103.317 103.316-103.316-103.316c-13.633-13.633-35.736-13.633-49.369 0l-103.316 103.316-103.316-103.316c-13.633-13.633-35.736-13.633-49.369 0l-68.406 68.406z" />
<glyph unicode="&#xe902;" glyph-name="cart" d="M267.524 657.944c14.963 3.741 30.126-5.357 33.867-20.32l18.285-73.142c3.741-14.963-5.356-30.126-20.32-33.867s-30.126 5.357-33.867 20.32l-18.285 73.143c-3.741 14.963 5.356 30.126 20.32 33.867zM537.060 657.944c14.964-3.741 24.064-18.904 20.322-33.867l-18.288-73.143c-3.738-14.963-18.902-24.061-33.866-20.32s-24.059 18.904-20.317 33.867l18.283 73.142c3.742 14.963 18.902 24.061 33.866 20.32zM73.164 805.068h731.43c8.364 0 16.291-3.752 21.597-10.222 5.302-6.47 7.429-14.978 5.786-23.182l-73.142-365.713c-2.611-13.056-14.075-22.454-27.387-22.454h-598.148c-15.178-0.149-29.915 5.115-41.56 14.862-11.543 9.658-19.293 23.082-21.889 37.897l-60.004 292.702c-1.698 9.279-1.334 18.819 1.055 27.945s6.751 17.617 12.778 24.874c6.027 7.257 13.573 13.104 22.105 17.128s17.843 6.128 27.277 6.162h0.102zM73.233 749.214c-1.253-0.010-2.489-0.291-3.622-0.826-1.144-0.539-2.155-1.323-2.963-2.296s-1.392-2.11-1.712-3.334c-0.303-1.16-0.363-2.371-0.173-3.554l59.897-292.182c0.072-0.349 0.136-0.698 0.195-1.052 0.309-1.866 1.277-3.561 2.729-4.776s3.291-1.871 5.184-1.843l0.374 0.005 575.416-0.005 61.971 309.862h-697.295zM871.149 895.498c-1.997 0-3.928-0.688-5.469-1.948-1.545-1.26-2.607-3.015-3.002-4.967-0.107-0.505-0.223-1.007-0.354-1.505l-30.72-117.029c-3.914-14.918-19.181-23.837-34.104-19.921-14.918 3.916-23.836 19.185-19.921 34.103l30.552 116.386c3.109 14.223 10.938 26.986 22.225 36.202 11.52 9.402 25.93 14.536 40.797 14.534-0.005 0 0 0 0 0h116.298c15.421 0 27.927-12.503 27.927-27.927s-12.507-27.927-27.927-27.927h-116.303zM736.926 438.803c15.127-3.021 24.934-17.734 21.909-32.861l-30.743-153.707c-2.974-14.569-10.887-27.662-22.407-37.064-11.515-9.402-25.926-14.536-40.797-14.536 0 0 0.005 0 0 0h-445.438c-15.424 0-27.927 12.507-27.927 27.927 0 15.425 12.504 27.927 27.927 27.927h445.438c1.997 0 3.933 0.689 5.474 1.95 1.536 1.252 2.593 2.993 2.998 4.929 0-0.014 0.005 0.014 0 0l30.706 153.53c3.025 15.123 17.738 24.93 32.861 21.904zM256.021 17.78c-4.774 0-8.644-3.868-8.644-8.643s3.87-8.643 8.644-8.643c4.774 0 8.644 3.868 8.644 8.643s-3.87 8.643-8.644 8.643zM191.523 9.137c0 35.621 28.877 64.498 64.499 64.498s64.499-28.877 64.499-64.498c0-35.621-28.877-64.498-64.499-64.498s-64.499 28.877-64.499 64.498zM621.75 17.78c-4.776 0-8.643-3.868-8.643-8.643s3.868-8.643 8.643-8.643c4.771 0 8.643 3.868 8.643 8.643s-3.873 8.643-8.643 8.643zM557.251 9.137c0 35.621 28.877 64.498 64.498 64.498s64.498-28.877 64.498-64.498c0-35.621-28.877-64.498-64.498-64.498s-64.498 28.877-64.498 64.498z" />
<glyph unicode="&#xe903;" glyph-name="check" horiz-adv-x="1365" d="M469.799 198.566l-319.301 326.331-150.497-153.81 394.551-403.236c19.959-20.396 47.025-31.85 75.248-31.85 28.227 0 55.293 11.454 75.249 31.85l820.285 838.34-150.494 153.81-745.041-761.434z" />
<glyph unicode="&#xe904;" glyph-name="chevron-down" horiz-adv-x="1755" d="M42.846 917.154c57.128 57.128 149.751 57.128 206.88 0l627.988-627.99 627.99 627.99c57.125 57.128 149.753 57.128 206.877 0s57.125-149.751 0-206.88l-731.427-731.429c-27.434-27.433-64.642-42.846-103.44-42.846s-76.006 15.413-103.44 42.846l-731.428 731.429c-57.128 57.129-57.128 149.752 0 206.88z" />
<glyph unicode="&#xe905;" glyph-name="close" d="M78.831 881.198c6.27 6.286 13.719 11.274 21.92 14.677s16.992 5.155 25.871 5.155c8.879 0 17.67-1.752 25.871-5.155s15.65-8.39 21.921-14.677l357.219-357.355 357.222 357.355c6.27 6.276 13.722 11.254 21.921 14.651s16.991 5.145 25.868 5.145c8.877 0 17.66-1.748 25.86-5.145s15.651-8.375 21.929-14.651c6.278-6.276 11.256-13.727 14.651-21.927s5.144-16.989 5.144-25.864c0-8.876-1.749-17.665-5.144-25.865s-8.373-15.651-14.651-21.927l-357.354-357.219 357.354-357.22c6.278-6.278 11.256-13.729 14.651-21.929s5.144-16.983 5.144-25.86c0-8.877-1.749-17.668-5.144-25.868s-8.373-15.651-14.651-21.921c-6.278-6.278-13.729-11.256-21.929-14.651-8.2-3.403-16.983-5.152-25.86-5.152s-17.668 1.749-25.868 5.152c-8.2 3.395-15.651 8.373-21.921 14.651l-357.222 357.351-357.219-357.351c-6.276-6.278-13.727-11.256-21.927-14.651-8.2-3.403-16.989-5.152-25.865-5.152s-17.664 1.749-25.865 5.152c-8.2 3.395-15.651 8.373-21.926 14.651-6.276 6.27-11.255 13.722-14.651 21.921s-5.145 16.991-5.145 25.868c0 8.877 1.748 17.66 5.145 25.86s8.375 15.651 14.651 21.929l357.354 357.22-357.354 357.219c-6.286 6.27-11.274 13.719-14.677 21.92s-5.155 16.993-5.155 25.872c0 8.878 1.752 17.67 5.155 25.871s8.39 15.65 14.677 21.92z" />
<glyph unicode="&#xe906;" glyph-name="download" horiz-adv-x="597" d="M56.602 507.213c12.497 12.493 32.758 12.493 45.255 0l196.801-196.804 196.8 196.804c12.497 12.493 32.759 12.493 45.257 0 12.497-12.497 12.497-32.759 0-45.257l-219.43-219.43c-12.497-12.497-32.758-12.497-45.255 0l-219.429 219.43c-12.497 12.497-12.497 32.759 0 45.257zM298.667 955.417c17.673 0 32-14.327 32-32v-658.286c0-17.673-14.327-32-32-32s-32 14.327-32 32v658.286c0 17.673 14.327 32 32 32zM10.667-27.418c0 17.673 14.327 32 32 32h512c17.673 0 32-14.327 32-32s-14.327-32-32-32h-512c-17.673 0-32 14.327-32 32z" />
<glyph unicode="&#xe907;" glyph-name="visibility-off" d="M690.56 133.632l-103.296 103.36c-39.946-14.28-83.127-16.927-124.517-7.627s-79.289 30.162-109.286 60.159c-29.997 29.997-50.86 67.896-60.159 109.286s-6.655 84.571 7.627 124.518l-131.84 131.84c-109.056-96.96-169.088-207.168-169.088-207.168s192-352 512-352c61.466 0.212 122.236 13.019 178.56 37.632zM333.44 762.368c56.324 24.613 117.094 37.421 178.56 37.632 320 0 512-352 512-352s-60.094-110.144-169.026-207.232l-131.966 131.968c14.279 39.946 16.927 83.127 7.627 124.517s-30.162 79.29-60.159 109.286c-29.997 29.997-67.896 50.86-109.286 60.159s-84.571 6.655-124.517-7.627l-103.232 103.296zM353.613 470.66c-3.52-24.596-1.264-49.674 6.59-73.246s21.090-44.992 38.659-62.561c17.569-17.569 38.989-30.805 62.561-38.659s48.65-10.11 73.246-6.589l-181.056 181.056zM670.413 425.348l-181.056 181.12c24.596 3.521 49.674 1.265 73.246-6.589s44.992-21.090 62.561-38.659c17.569-17.569 30.805-38.989 38.659-62.561s10.111-48.65 6.589-73.246v-0.064zM873.355 41.348l-767.998 768.001 45.312 45.312 767.998-768.001-45.312-45.312z" />
<glyph unicode="&#xe908;" glyph-name="roaming-signal" d="M823.194 136.567l4.954-4.954c12.134-12.297 28.971-18.799 46.212-17.852 17.259 0.947 33.263 9.25 43.985 22.805 82.21 107.247 118.694 242.667 101.483 376.73-17.212 134.048-86.716 255.853-193.353 338.848-106.641 82.995-241.758 120.411-375.885 104.12-91.247-10.656-177.841-46.062-250.425-102.38-107.308-82.395-177.639-203.935-195.621-338.049s17.848-269.892 99.667-377.643c10.563-14.012 26.671-22.784 44.174-24.034 17.491-1.259 34.682 5.111 47.14 17.476l4.953 4.954c10.385 10.466 16.61 24.346 17.524 39.066 0.914 14.707-3.547 29.257-12.56 40.917-62.589 82.641-89.104 187.098-73.51 289.6 15.583 102.505 71.959 194.339 156.279 254.618 84.329 60.288 189.442 83.889 291.415 65.445 53.577-9.228 104.465-30.151 149.039-61.271 86.682-59.386 145.242-151.722 162.022-255.476 16.764-103.753-9.719-209.847-73.267-293.542-8.832-11.674-13.116-26.155-12.058-40.764 1.062-14.596 7.394-28.309 17.813-38.588l0.017-0.026zM767.855-0.017c0 16.969-6.75 33.25-18.739 45.248-11.994 11.994-28.267 18.743-45.235 18.743h-127.932v159.97c0 22.852-12.194 43.977-31.983 55.411-19.785 11.426-44.173 11.426-63.957 0-19.789-11.435-31.979-32.559-31.979-55.411v-159.97h-127.936c-22.856 0-43.971-12.194-55.393-32-11.433-19.797-11.433-44.19 0-63.983 11.422-19.793 32.54-31.991 55.393-31.991h383.796c16.964 0 33.242 6.741 45.231 18.735 11.994 12.006 18.739 28.275 18.739 45.248h-0.004zM511.996 703.823c-83.055-0.1-160.896-40.529-208.77-108.416-47.877-67.902-59.834-154.814-32.060-233.124 5.577-16.166 17.39-29.423 32.806-36.826 15.415-7.386 33.151-8.299 49.248-2.53 16.096 5.777 29.204 17.754 36.42 33.263 7.206 15.514 7.898 33.254 1.941 49.289-4.919 13.589-7.462 27.93-7.518 42.394 0 45.717 24.384 87.973 63.972 110.825 39.578 22.864 88.346 22.864 127.923 0 39.586-22.853 63.97-65.108 63.97-110.825-0.055-14.464-2.598-28.8-7.518-42.394-5.956-16.034-5.265-33.775 1.941-49.289 7.219-15.509 20.322-27.482 36.42-33.263 16.098-5.769 33.835-4.855 49.25 2.53 15.415 7.398 27.226 20.655 32.802 36.826 27.776 78.31 15.821 165.227-32.060 233.124-47.876 67.889-125.713 108.316-208.768 108.416v0z" />
<glyph unicode="&#xe909;" glyph-name="download-speed" horiz-adv-x="992" d="M151.443 503.251c-4.998-0.019-9.786-2.032-13.311-5.603-3.517-3.571-5.486-8.403-5.469-13.43v-322.243h-92.389c-7.606-0.006-14.473-4.611-17.392-11.686-2.92-7.066-1.329-15.206 4.039-20.64l186.721-187.642c7.346-7.344 19.218-7.344 26.572 0l186.577 187.642c5.366 5.434 6.957 13.574 4.038 20.64-2.922 7.075-9.786 11.68-17.402 11.686h-92.381v322.243c0.019 5.027-1.951 9.859-5.468 13.43-3.525 3.562-8.313 5.584-13.311 5.603h-150.824zM776.435 959.969c-6.294-0.372-11.981-3.893-15.162-9.368l-326.403-568.665c-3.414-5.866-3.459-13.126-0.093-19.024s9.61-9.526 16.374-9.526h250.17l-104.774-393.062c-2.726-9.299 1.962-19.174 10.874-22.88 8.909-3.709 19.165-0.051 23.77 8.47l326.4 568.666c3.35 5.856 3.35 13.066-0.006 18.912-3.35 5.856-9.552 9.469-16.266 9.494h-250.17l104.765 393.183c1.565 5.907 0.202 12.211-3.661 16.925-3.862 4.722-9.75 7.278-15.818 6.863v0.012z" />
<glyph unicode="&#xe90a;" glyph-name="flight" horiz-adv-x="1890" d="M1747.564 512.466c-16.63 86.557-97.369 142.673-180.312 125.338l-417.345-136.645-411.291 383.105-124.988-38.128 207.458-452.632-406.443-133.031-183.003 156.318-91.855-65.921 200.079-296.084 1287.655 269.436c82.943 17.417 136.696 101.669 120.043 188.243z" />
<glyph unicode="&#xe90b;" glyph-name="gaming-connections" horiz-adv-x="1059" d="M774.589 521.149h-477.867c-150.567 0-273.067-131.252-273.067-292.574s122.5-292.574 273.067-292.574c66.946 0 130.484 25.861 180.451 73.142h116.951c49.964-47.288 113.53-73.142 180.464-73.142 150.567 0 273.065 131.252 273.065 292.574s-122.499 292.574-273.065 292.574zM364.989 192.004h-34.134v-36.574c0-20.212-15.284-36.571-34.133-36.571s-34.133 16.359-34.133 36.571v36.574h-34.133c-18.849 0-34.133 16.359-34.133 36.571s15.284 36.571 34.133 36.571h34.133v36.571c0 20.215 15.284 36.574 34.133 36.574s34.133-16.359 34.133-36.574v-36.571h34.134c18.849 0 34.135-16.359 34.135-36.571s-15.286-36.571-34.135-36.571zM774.589 338.291c18.863 0 34.135-16.359 34.135-36.574 0-20.212-15.272-36.571-34.135-36.571-18.866 0-34.135 16.359-34.135 36.571 0 20.215 15.268 36.574 34.135 36.574zM706.323 192.004c-18.866 0-34.135 16.359-34.135 36.571s15.268 36.571 34.135 36.571c18.863 0 34.131-16.359 34.131-36.571s-15.268-36.571-34.131-36.571zM774.589 118.858c-18.866 0-34.135 16.359-34.135 36.571 0 20.215 15.268 36.574 34.135 36.574 18.863 0 34.135-16.359 34.135-36.574 0-20.212-15.272-36.571-34.135-36.571zM842.854 192.004c-18.863 0-34.131 16.359-34.131 36.571s15.268 36.571 34.131 36.571c18.866 0 34.135-16.359 34.135-36.571s-15.268-36.571-34.135-36.571zM342.558 822.603c-13.333 14.286-13.333 37.429 0 51.714 51.527 55.25 120.113 85.682 193.096 85.682 72.969 0 141.531-30.432 193.098-85.682 13.333-14.286 13.333-37.429 0-51.714-6.667-7.143-15.399-10.718-24.138-10.718-8.732 0-17.468 3.576-24.135 10.718-38.661 41.429-90.091 64.253-144.825 64.253s-106.164-22.825-144.829-64.253c-13.305-14.286-34.933-14.286-48.267 0zM583.892 719.109c-25.868 27.715-70.638 27.715-96.468 0-13.333-14.286-34.933-14.286-48.266 0s-13.333 37.429 0 51.714c51.62 55.324 141.404 55.397 192.999 0 13.333-14.286 13.333-37.429 0-51.714-6.667-7.143-15.399-10.718-24.138-10.718-8.732 0-17.461 3.576-24.128 10.718zM535.654 667.428c18.849 0 34.135-16.359 34.135-36.572s-15.286-36.573-34.135-36.573c-18.849 0-34.131 16.36-34.131 36.573s15.282 36.572 34.131 36.572z" />
<glyph unicode="&#xe90c;" glyph-name="upload-speed" horiz-adv-x="992" d="M302.26-63.501c4.998 0.019 9.786 2.032 13.311 5.603 3.517 3.571 5.488 8.403 5.468 13.43v322.243h92.39c7.606 0.006 14.474 4.611 17.392 11.686 2.918 7.066 1.328 15.206-4.038 20.64l-186.722 187.642c-7.346 7.344-19.218 7.344-26.572 0l-186.577-187.642c-5.368-5.434-6.959-13.574-4.039-20.64 2.92-7.075 9.786-11.68 17.401-11.686h92.38v-322.243c-0.017-5.027 1.952-9.859 5.469-13.43 3.525-3.562 8.313-5.584 13.311-5.603h150.824zM776.435 959.969c-6.294-0.372-11.981-3.893-15.162-9.368l-326.403-568.665c-3.414-5.866-3.459-13.126-0.093-19.024s9.61-9.526 16.374-9.526h250.17l-104.774-393.062c-2.726-9.299 1.962-19.174 10.874-22.88 8.909-3.709 19.165-0.051 23.77 8.47l326.4 568.666c3.35 5.856 3.35 13.066-0.006 18.912-3.35 5.856-9.552 9.469-16.266 9.494h-250.17l104.765 393.183c1.565 5.907 0.202 12.211-3.661 16.925-3.862 4.722-9.75 7.278-15.818 6.863v0.012z" />
<glyph unicode="&#xe90f;" glyph-name="flight-takeoff" horiz-adv-x="1280" d="M1267.439 72.277h-1169.841v-136.277h1169.841v136.277zM1277.585 605.469c-13.218 82.539-77.372 136.046-143.283 119.519l-331.628-130.3-326.828 365.312-99.319-36.354 164.851-431.609-322.968-126.851-145.419 149.056-72.991-62.863 158.985-282.331 1023.206 256.922c65.911 16.608 108.638 96.95 95.403 179.503l-0.009-0.003z" />
<glyph unicode="&#xe910;" glyph-name="gift" d="M994.181 725.712h-345.555c55.531 10.659 121.292 29.985 172.649 65.048 37.956 25.913 47.882 53.975 49.527 72.952l-0.014 0.008c1.809 22.254-6.649 44.111-22.972 59.349-48.995 47.642-167.057 53.865-251.774-9.127h0.008c-41.888-30.094-71.681-74.126-84.055-124.198-12.373 50.072-42.174 94.102-84.055 124.198-84.713 62.984-202.791 56.769-251.772 9.127-16.325-15.238-24.785-37.095-22.977-59.349 1.642-18.976 11.563-47.038 49.532-72.959 51.364-35.064 117.119-54.381 172.65-65.048h-345.557c-7.905 0-15.492-3.143-21.087-8.738-5.587-5.587-8.73-13.175-8.73-21.079v-153.696c0-7.905 3.143-15.492 8.73-21.087 5.595-5.588 13.182-8.731 21.087-8.731h370.527v208.984c16.984-2.675 32.429-4.532 45.507-5.818l0.008-779.534h132.269v779.534c13.079 1.286 28.524 3.143 45.507 5.809v-208.964h370.546c7.905 0 15.497 3.143 21.088 8.731 5.591 5.595 8.731 13.182 8.731 21.087v153.697c0 7.905-3.14 15.492-8.731 21.079-5.591 5.595-13.182 8.738-21.088 8.738v-0.012zM630.015 868.291c30.771 22.658 68.011 34.84 106.22 34.753 32.631 0 59.856-9.024 71.919-20.754 4.007-3.381 6.212-8.436 5.967-13.667-0.806-9.357-9.892-20.618-24.917-30.88-68.144-46.522-171.475-61.435-223.166-66.11v-0.008c8.587 39.048 31.388 73.5 63.975 96.666l0.003 0.001zM209.874 868.624c-0.238 5.23 1.96 10.286 5.968 13.667 24.365 23.665 110.476 36.317 178.143-13.992v-0.008c32.587-23.157 55.389-57.618 63.967-96.666-51.689 4.682-155.007 19.595-223.145 66.11-15.032 10.27-24.127 21.524-24.935 30.889h0.003zM79.675-34.12c0-7.905 3.143-15.49 8.738-21.088 5.587-5.584 13.174-8.731 21.079-8.731h290.883v530.872h-320.709l0.009-501.053zM623.667-63.932h290.902c7.905 0 15.497 3.147 21.081 8.731 5.598 5.598 8.738 13.182 8.738 21.088v501.046h-320.709l-0.012-530.865z" />
<glyph unicode="&#xe911;" glyph-name="location" horiz-adv-x="745" d="M372.373 886.857c-77.595 0-152.011-30.824-206.879-85.692s-85.693-129.285-85.693-206.879c0-36.965 17.437-92.329 48.060-158.644 29.977-64.917 70.263-135.526 111.019-201.235 40.679-65.583 81.418-125.635 112.019-169.323 7.9-11.283 15.117-21.457 21.474-30.348 6.357 8.89 13.574 19.065 21.474 30.348 30.601 43.688 71.34 103.741 112.018 169.323 40.755 65.708 81.045 136.318 111.020 201.235 30.622 66.314 48.058 121.679 48.058 158.644 0 77.595-30.822 152.011-85.69 206.879s-129.286 85.692-206.88 85.692zM372.373-27.429c-29.275-21.918-29.278-21.914-29.283-21.909l-0.265 0.354-0.741 0.996-2.826 3.812c-2.461 3.333-6.050 8.22-10.606 14.48-9.11 12.53-22.095 30.59-37.664 52.82-31.113 44.423-72.66 105.654-114.266 172.73-41.529 66.956-83.529 140.395-115.267 209.124-31.091 67.328-54.798 135.21-54.798 189.308 0 96.993 38.531 190.014 107.115 258.599s161.606 107.115 258.599 107.115c96.996 0 190.012-38.531 258.597-107.115s107.12-161.606 107.12-258.599c0-54.098-23.71-121.98-54.798-189.308-31.739-68.729-73.737-142.168-115.27-209.124-41.607-67.077-83.153-128.307-114.265-172.73-15.568-22.23-28.553-40.29-37.663-52.82-4.556-6.26-8.145-11.148-10.606-14.48l-3.567-4.808-0.249-0.33c-0.005-0.009-0.023-0.033-29.298 21.886zM372.373-27.429l29.298-21.886c-6.905-9.225-17.777-14.685-29.298-14.685s-22.377 5.441-29.283 14.662l29.283 21.909zM372.377 667.426c-40.396 0-73.143-32.748-73.143-73.143s32.747-73.143 73.143-73.143c40.396 0 73.143 32.747 73.143 73.143s-32.747 73.143-73.143 73.143zM226.091 594.283c0 80.791 65.495 146.285 146.286 146.285s146.284-65.494 146.284-146.285c0-80.791-65.493-146.287-146.284-146.287s-146.286 65.496-146.286 146.287z" />
<glyph unicode="&#xe912;" glyph-name="network-signal" d="M908.493 959.996h-793.008c-63.678 0-115.485-51.821-115.485-115.506v-792.99c0-63.693 51.807-115.5 115.485-115.5h793.008c63.7 0 115.507 51.808 115.507 115.507v793.008c0 63.678-51.808 115.485-115.507 115.485v-0.004zM256.009 208.002c0-13.251-10.736-24.003-24-24.003s-24 10.752-24 24.003v80c0 13.25 10.736 24 24 24s24-10.75 24-24v-80zM368.009 208.002c0-13.251-10.736-24.003-24-24.003s-24 10.752-24 24.003v159.999c0 13.25 10.736 24 24 24s24-10.75 24-24v-159.999zM480.008 208.002c0-13.251-10.736-24.003-24-24.003s-24 10.752-24 24.003v239.998c0 13.264 10.736 24 24 24s24-10.736 24-24v-239.998zM592.006 208.002c0-13.251-10.75-24.003-24-24.003s-24 10.752-24 24.003v319.998c0 13.264 10.75 24 24 24s24-10.736 24-24v-319.998zM704.007 208.002c0-13.251-10.752-24.003-24.001-24.003s-24 10.752-24 24.003v399.997c0 13.264 10.75 24 24 24s24.001-10.736 24.001-24v-399.997zM816.005 208.002c0-13.251-10.752-24.003-24.003-24.003s-23.996 10.752-23.996 24.003v479.997c0 13.264 10.745 24 23.996 24s24.003-10.736 24.003-24v-479.997z" />
<glyph unicode="&#xe913;" glyph-name="data-signal" horiz-adv-x="1067" d="M951.023 658.564c0-78.486-31.040-154.112-86.067-209.766-21.163-21.402-21.163-54.225 0-75.631 21.158-21.397 53.619-21.397 74.782 0 155.213 155.541 156.621 409.545 2.825 567.939-21.163 21.401-53.619 21.401-74.782 0s-21.163-54.228 0-75.63c53.619-54.217 83.243-128.425 83.243-206.912zM754.889 488.755c21.158-21.402 53.619-21.402 74.782 0 93.129 94.184 93.129 245.441 1.408 339.622-21.163 21.4-53.623 21.4-74.786 0-21.158-21.401-21.158-54.228 0-75.63 50.799-52.796 50.799-136.995 0-188.366-22.566-21.411-22.566-54.228-1.404-75.63v0.004zM191.906 374.588c21.161 21.402 21.161 54.229 0 75.631-114.289 114.161-115.707 301.093-2.825 416.678l1.408 1.423c21.161 21.4 21.161 54.227 0 75.63-21.161 21.401-53.62 21.401-74.783 0-155.215-156.973-153.796-410.97 1.408-567.937l1.408-1.425c18.346-21.41 52.215-21.41 73.385 0zM136.878 14.976c-14.114-25.681-2.825-58.509 22.578-72.772 25.393-14.276 57.853-2.859 71.959 22.831l125.579 244.019 118.522-85.623v-158.396c0-15.697 12.698-28.535 28.215-28.535h49.391c15.522 0 28.22 12.843 28.22 28.535l0.009 158.387 118.519 85.623 125.581-244.019c14.114-25.681 45.158-37.099 71.957-22.835 26.812 14.276 36.685 45.67 22.579 72.777l-303.364 586.485c31.040 49.949 16.93 115.583-31.044 148.401-47.97 32.818-114.287 17.121-146.739-31.393-22.576-35.674-22.576-81.343 0-117.017l-301.961-586.467zM529.135 541.53l121.348-236.881-121.348-88.469-121.345 88.469 121.345 236.881zM229.995 487.313c21.161-19.977 55.029-19.977 74.783 1.421 19.754 21.402 19.754 55.654-1.407 75.631-52.204 51.371-52.204 136.995-1.408 189.788 21.161 21.401 21.161 54.228 0 75.63-21.161 21.4-53.62 21.4-74.783 0-93.128-94.183-93.128-246.865 0-341.049 1.408-1.421 1.408-2.846 2.815-1.421z" />
<glyph unicode="&#xe914;" glyph-name="person-circle" d="M511.995 705.659c-81.711 0-147.95-66.238-147.95-147.948s66.238-147.948 147.95-147.948c81.706 0 147.945 66.239 147.945 147.948s-66.239 147.948-147.945 147.948zM294.227 557.711c0 120.269 97.497 217.766 217.768 217.766 120.269 0 217.763-97.497 217.763-217.766 0-120.267-97.494-217.766-217.763-217.766-120.271 0-217.768 97.499-217.768 217.766zM512 878.545c-237.784 0-430.545-192.762-430.545-430.545s192.762-430.545 430.545-430.545c237.782 0 430.545 192.763 430.545 430.545 0 237.784-192.763 430.545-430.545 430.545zM11.636 448c0 276.343 224.020 500.364 500.364 500.364s500.364-224.020 500.364-500.364c0-276.345-224.019-500.364-500.364-500.364-276.343 0-500.364 224.019-500.364 500.364zM246.777 199.885c73.213 64.666 167.53 100.352 265.214 100.352 97.68 0 192-35.686 265.211-100.352 14.452-12.763 15.816-34.825 3.053-49.273-12.763-14.452-34.821-15.821-49.273-3.058-60.453 53.397-138.333 82.865-218.992 82.865s-158.54-29.468-218.994-82.865c-14.451-12.763-36.511-11.394-49.274 3.058-12.763 14.448-11.396 36.51 3.055 49.273z" />
<glyph unicode="&#xe915;" glyph-name="phone-telephone-mail" d="M370.292 850.274c0 58.069 47.075 105.143 105.143 105.143h438.857c58.069 0 105.143-47.074 105.143-105.143v-292.571c0-58.067-47.074-105.141-105.143-105.141h-438.857c-58.068 0-105.143 47.074-105.143 105.141v292.571zM475.435 891.417c-22.724 0-41.143-18.42-41.143-41.143v-292.571c0-22.722 18.419-41.141 41.143-41.141h438.857c22.724 0 41.143 18.419 41.143 41.141v292.571c0 22.723-18.419 41.143-41.143 41.143h-438.857zM373.677 828.064c7.904 15.807 27.125 22.214 42.933 14.311l278.26-139.13 278.263 139.13c15.804 7.904 35.025 1.496 42.931-14.311 7.902-15.808 1.498-35.029-14.31-42.932l-292.574-146.286c-9.007-4.504-19.61-4.504-28.621 0l-292.571 146.286c-15.808 7.904-22.215 27.125-14.311 42.932zM4.563 850.274c0 58.069 47.074 105.143 105.143 105.143h164.571c17.673 0 32-14.327 32-32s-14.327-32-32-32h-164.571c-22.723 0-41.143-18.42-41.143-41.143v-804.573c0-22.72 18.42-41.139 41.143-41.139h511.999c22.724 0 41.143 18.419 41.143 41.139v292.574c0 17.673 14.327 32 32 32s32-14.327 32-32v-292.574c0-58.069-47.074-105.139-105.143-105.139h-511.999c-58.068 0-105.143 47.070-105.143 105.139v804.573zM297.146 155.418c0 17.673 14.327 32 32 32h73.143c17.673 0 31.998-14.327 31.998-32s-14.325-32-31.998-32h-73.143c-17.673 0-32 14.327-32 32z" />
<glyph unicode="&#xe916;" glyph-name="play-button" horiz-adv-x="1229" d="M219.418 848.5c-75.742 0-137.143-61.401-137.143-137.143v-526.627c0-75.745 61.401-137.144 137.143-137.144h789.944c75.74 0 137.139 61.399 137.139 137.144v526.627c0 75.742-61.399 137.143-137.139 137.143h-789.944zM5.475 711.357c0 118.158 95.785 213.943 213.943 213.943h789.944c118.154 0 213.939-95.785 213.939-213.943v-526.627c0-118.159-95.785-213.944-213.939-213.944h-789.944c-118.158 0-213.943 95.785-213.943 213.944v526.627zM504.465 606.756v-356.931l305.939 178.468-305.939 178.463zM464.473 677.247c11.494 6.513 24.547 9.768 37.753 9.415 12.897-0.346 25.461-4.119 36.403-10.924l315.51-184.046c11.054-6.486 20.219-15.749 26.588-26.87s9.718-23.713 9.718-36.529c0-12.82-3.348-25.411-9.718-36.531-6.369-11.126-15.534-20.388-26.588-26.875l-0.087-0.046-316.124-184.407c-11.223-6.482-23.956-9.876-36.918-9.851-12.96 0.031-25.682 3.487-36.876 10.015-11.194 6.533-20.464 15.903-26.868 27.172-6.37 11.208-9.681 23.89-9.601 36.782 0.001 0.067 0.001 0.133 0.002 0.205l38.398-0.348h-38.4v368.181c0.005-0.223 0.010-0.446 0.016-0.67l38.384 1.129h-38.4v-0.46c-0.262 12.977 2.958 25.791 9.331 37.108 6.483 11.511 15.983 21.036 27.477 27.549z" />
<glyph unicode="&#xe917;" glyph-name="privacy" d="M96 896c-8.487 0-16.626-3.371-22.628-9.372s-9.372-14.141-9.372-22.628v-327.979c-0.017-128.572 45.504-252.997 128.49-351.198 81.82-96.824 194.845-161.992 319.51-184.343 124.663 22.351 237.689 87.519 319.511 184.343 82.986 98.202 128.507 222.622 128.489 351.194v327.983c0 8.487-3.37 16.626-9.374 22.628-6 6.001-14.141 9.372-22.626 9.372h-832zM28.118 931.882c18.004 18.003 42.421 28.118 67.882 28.118h832c25.46 0 49.878-10.114 67.882-28.118s28.118-42.421 28.118-67.882v-327.974c0 0.001 0-0.002 0 0 0.019-143.694-50.86-282.758-143.607-392.512-92.746-109.759-221.375-183.114-363.059-207.067-3.533-0.596-7.135-0.596-10.668 0-141.686 23.952-270.311 97.308-363.060 207.067-92.747 109.754-143.624 248.813-143.606 392.508 0 0.001 0-0.001 0 0v327.979c0 25.461 10.114 49.879 28.118 67.882zM387.549 716.451c33.006 33.006 77.773 51.549 124.451 51.549 46.68 0 91.443-18.543 124.449-51.549 33.010-33.006 51.549-77.773 51.549-124.451s-18.539-91.445-51.549-124.451c-33.005-33.005-77.768-51.549-124.449-51.549-46.678 0-91.445 18.544-124.451 51.549s-51.549 77.773-51.549 124.451c0 46.678 18.543 91.445 51.549 124.451zM512 704c-29.705 0-58.192-11.8-79.196-32.804s-32.804-49.492-32.804-79.196c0-29.704 11.8-58.192 32.804-79.196s49.491-32.804 79.196-32.804c29.705 0 58.191 11.799 79.197 32.804 21.001 21.004 32.801 49.492 32.801 79.196s-11.799 58.192-32.801 79.196c-21.006 21.004-49.492 32.804-79.197 32.804zM360.233 375.924c45.629 28.104 98.166 42.985 151.758 42.985 53.588 0 106.124-14.881 151.752-42.985 45.629-28.109 82.558-68.329 106.668-116.191 7.955-15.784 1.606-35.021-14.178-42.975-15.784-7.95-35.025-1.601-42.975 14.182-18.781 37.274-47.542 68.603-83.079 90.489-35.537 21.89-76.451 33.48-118.188 33.48s-82.656-11.59-118.193-33.48c-35.537-21.886-64.297-53.215-83.076-90.489-7.951-15.784-27.192-22.132-42.976-14.182-15.783 7.955-22.132 27.192-14.181 42.975 24.111 47.863 61.039 88.083 106.668 116.191z" />
<glyph unicode="&#xe918;" glyph-name="receipt" d="M122.060 933.939c18.549 18.549 43.708 28.97 69.94 28.97h640c26.228 0 51.391-10.42 69.939-28.97v0c0 0 0 0 0 0 18.553-18.55 28.97-43.709 28.97-69.939v-896c0-14.117-8.504-26.847-21.551-32.251-13.042-5.404-28.058-2.416-38.042 7.568l-103.317 103.312 24.683 24.688-24.683 24.683-24.683-24.683 24.683-24.688-103.317-103.312c-13.633-13.633-35.733-13.633-49.366 0l-103.317 103.312 24.683 24.688-24.683 24.683-24.683-24.683 24.683-24.688-103.316-103.312c-13.633-13.633-35.736-13.633-49.369 0l-103.316 103.312 24.684 24.688-24.684 24.683-24.684-24.683 24.684-24.688-103.316-103.312c-9.984-9.984-24.999-12.972-38.043-7.568s-21.55 18.134-21.55 32.251v896c0 26.232 10.421 51.39 28.969 69.939zM192 893.091c-7.715 0-15.115-3.065-20.57-8.52v0c-5.456-5.456-8.521-12.855-8.521-20.57v-811.72l68.406 68.403c13.633 13.633 35.736 13.633 49.369 0l103.316-103.312 103.317 103.312c13.633 13.633 35.733 13.633 49.366 0l103.317-103.312 103.317 103.312c13.633 13.633 35.733 13.633 49.366 0l68.408-68.403v811.72c0 7.718-3.067 15.117-8.518 20.57v0c-5.455 5.454-12.856 8.52-20.573 8.52h-640zM221.091 704c0 19.28 15.629 34.909 34.909 34.909h256c19.279 0 34.909-15.629 34.909-34.909s-15.63-34.909-34.909-34.909h-256c-19.28 0-34.909 15.629-34.909 34.909zM221.091 512c0 19.28 15.629 34.909 34.909 34.909h256c19.279 0 34.909-15.629 34.909-34.909s-15.63-34.909-34.909-34.909h-256c-19.28 0-34.909 15.63-34.909 34.909zM221.091 320c0 19.279 15.629 34.909 34.909 34.909h256c19.279 0 34.909-15.63 34.909-34.909s-15.63-34.909-34.909-34.909h-256c-19.28 0-34.909 15.63-34.909 34.909zM783.034 528c2.476 4.793 3.873 10.233 3.873 16 0 19.28-15.625 34.909-34.909 34.909-28.113 0-50.907-22.792-50.907-50.909s22.793-50.909 50.907-50.909c19.284 0 34.909 15.63 34.909 34.909 0 5.767-1.396 11.207-3.873 16zM717.089 544c0 19.28 15.63 34.909 34.909 34.909 28.118 0 50.911-22.792 50.911-50.909s-22.793-50.909-50.911-50.909c-19.279 0-34.909 15.63-34.909 34.909 0 5.767 1.401 11.207 3.877 16-2.476 4.793-3.877 10.233-3.877 16zM783.034 336.002c2.476 4.79 3.873 10.231 3.873 15.998 0 19.279-15.625 34.909-34.909 34.909-28.113 0-50.907-22.793-50.907-50.907 0-28.118 22.793-50.911 50.907-50.911 19.284 0 34.909 15.63 34.909 34.909 0 5.767-1.396 11.208-3.873 16.002zM717.089 352c0 19.279 15.63 34.909 34.909 34.909 28.118 0 50.911-22.793 50.911-50.907 0-28.118-22.793-50.911-50.911-50.911-19.279 0-34.909 15.63-34.909 34.909 0 5.767 1.401 11.208 3.877 16.002-2.476 4.79-3.877 10.231-3.877 15.998zM717.089 736c0 19.28 15.63 34.909 34.909 34.909 28.118 0 50.911-22.792 50.911-50.909s-22.793-50.909-50.911-50.909c-19.279 0-34.909 15.629-34.909 34.909 0 5.767 1.401 11.207 3.877 16-2.476 4.793-3.877 10.233-3.877 16z" />
<glyph unicode="&#xe919;" glyph-name="reward" d="M512.223 664.633c-0.088 0.054-0.191 0.083-0.293 0.083s-0.205-0.029-0.293-0.083c-0.088-0.054-0.158-0.132-0.205-0.225l-0.107-0.223-68.27-134.698c-5.451-10.756-16.485-17.534-28.544-17.534h-116.651c-0.026 0-0.056-0.007-0.077-0.022s-0.037-0.034-0.047-0.058c-0.010-0.023-0.012-0.049-0.007-0.074s0.018-0.047 0.036-0.065l106.674-104.926c9.447-9.29 12.189-23.445 6.898-35.593l-59.299-136.131c-0.011-0.023-0.013-0.051-0.008-0.079 0.006-0.023 0.019-0.047 0.039-0.065s0.045-0.028 0.072-0.033c0.027-0.005 0.053 0 0.076 0.014 0 0 0 0 0 0l144.101 81.054c9.737 5.478 21.634 5.478 31.372 0l144.1-81.054c0.023-0.009 0.051-0.019 0.079-0.014s0.051 0.014 0.070 0.033c0.023 0.019 0.033 0.042 0.042 0.065 0 0.019 0.005 0.037 0 0.051 0 0.009 0.005-0.009 0 0l-59.308 136.159c-5.288 12.139-2.555 26.275 6.87 35.565l106.705 105.216h-116.922c-12.055 0-23.091 6.778-28.542 17.534l-68.357 134.879c-0.047 0.093-0.116 0.17-0.205 0.225zM511.884 728.716c12.004 0.008 23.775-3.331 33.987-9.644 10.184-6.292 18.413-15.291 23.775-25.99l59.336-117.086h97.508c12.665-0.014 25.079-3.792 35.593-10.853 10.519-7.061 18.697-17.088 23.505-28.808s6.023-24.603 3.496-37.015c-2.532-12.413-8.69-23.793-17.701-32.697l-91.262-89.991 50.534-116.005c5.353-12.316 6.717-26.014 3.877-39.14-2.835-13.126-9.719-25.027-19.684-34.034-9.961-9.002-22.5-14.653-35.845-16.147-13.345-1.499-26.819 1.229-38.53 7.801l-128.47 72.257-128.44-72.239c-11.711-6.572-25.217-9.318-38.561-7.82-13.344 1.494-25.882 7.145-35.845 16.147-9.963 9.007-16.848 20.908-19.685 34.034s-1.482 26.81 3.874 39.121l50.529 116.001-90.977 89.484c-0.002 0 0.002-0.005 0 0-9.075 8.923-15.297 20.354-17.86 32.82-2.563 12.47-1.357 25.422 3.466 37.204s13.043 21.863 23.614 28.957c10.57 7.093 23.011 10.88 35.74 10.879-0.002 0 0.002 0 0 0h96.994l59.333 117.072c5.346 10.694 13.556 19.695 23.717 25.997 10.207 6.328 21.969 9.685 33.978 9.694zM160 896c-53.019 0-96-42.981-96-96v-704c0-53.020 42.981-96 96-96h704c53.020 0 96 42.98 96 96v704c0 53.019-42.98 96-96 96h-704zM0 800c0 88.366 71.634 160 160 160h704c88.367 0 160-71.634 160-160v-704c0-88.367-71.633-160-160-160h-704c-88.366 0-160 71.633-160 160v704z" />
<glyph unicode="&#xe91a;" glyph-name="security-lock" d="M125.091 384c0 72.299 58.61 130.909 130.909 130.909h512c72.299 0 130.909-58.61 130.909-130.909v-320c0-72.299-58.61-130.909-130.909-130.909h-512c-72.3 0-130.909 58.61-130.909 130.909v320zM256 445.091c-33.739 0-61.091-27.355-61.091-61.091v-320c0-33.736 27.352-61.091 61.091-61.091h512c33.736 0 61.091 27.355 61.091 61.091v320c0 33.736-27.355 61.091-61.091 61.091h-512zM512 893.091c-50.15 0-98.246-19.922-133.707-55.384s-55.384-83.557-55.384-133.707v-224c0-19.279-15.629-34.909-34.909-34.909s-34.909 15.63-34.909 34.909v224c0 68.667 27.277 134.521 75.833 183.076s114.409 75.833 183.076 75.833c68.669 0 134.521-27.278 183.077-75.832s75.832-114.41 75.832-183.077v-224c0-19.279-15.63-34.909-34.909-34.909s-34.909 15.63-34.909 34.909v224c0 50.15-19.921 98.246-55.384 133.707-35.463 35.463-83.558 55.384-133.706 55.384zM125.091 224c0 19.279 15.629 34.909 34.909 34.909h704c19.279 0 34.909-15.63 34.909-34.909s-15.63-34.909-34.909-34.909h-704c-19.28 0-34.909 15.63-34.909 34.909zM320 333.089c10.444 0 18.909 8.467 18.909 18.911s-8.465 18.911-18.909 18.911v31.995c-28.117 0-50.909-22.793-50.909-50.907s22.792-50.907 50.909-50.907v31.995zM320 402.907c28.117 0 50.909-22.793 50.909-50.907s-22.792-50.907-50.909-50.907v31.995c-10.444 0-18.909 8.467-18.909 18.911s8.465 18.911 18.909 18.911v31.995zM320 80.002c8.837 0 16 7.163 16 15.998s-7.163 15.998-16 15.998v32.005c-26.51 0-48-21.495-48-48.002s21.49-48.002 48-48.002v32.005zM320 144.002c26.51 0 48-21.495 48-48.002s-21.49-48.002-48-48.002v32.005c-8.837 0-16 7.163-16 15.998s7.163 15.998 16 15.998v32.005z" />
<glyph unicode="&#xe91c;" glyph-name="user-circle" d="M511.944 712.645c-85.566 0-154.931-69.364-154.931-154.93 0-85.563 69.365-154.93 154.931-154.93 85.565 0 154.931 69.367 154.931 154.93 0 85.565-69.367 154.93-154.931 154.93zM301.159 557.716c0 116.413 94.372 210.784 210.785 210.784 116.41 0 210.786-94.371 210.786-210.784s-94.376-210.784-210.786-210.784c-116.413 0-210.785 94.371-210.785 210.784zM511.958 237.112c-57.947 0-114.917-14.909-165.437-43.287s-92.889-69.274-123.036-118.761c-8.024-13.168-25.208-17.343-38.38-9.318s-17.345 25.209-9.32 38.381c35.132 57.665 84.507 105.328 143.38 138.398s125.264 50.441 192.792 50.441c67.523 0 133.916-17.371 192.787-50.441 58.875-33.071 108.251-80.733 143.383-138.398 8.024-13.172 3.849-30.357-9.323-38.381s-30.352-3.849-38.377 9.318c-30.147 49.487-72.518 90.382-123.038 118.761s-107.487 43.287-165.432 43.287zM511.967 895.498c-247.146 0-447.499-200.353-447.499-447.502 0-247.147 200.353-447.502 447.499-447.502 247.152 0 447.502 200.355 447.502 447.502 0 247.149-200.35 447.502-447.502 447.502zM8.614 447.995c0 277.997 225.36 503.357 503.354 503.357 277.997 0 503.357-225.36 503.357-503.357 0-277.993-225.359-503.357-503.357-503.357-277.994 0-503.354 225.364-503.354 503.357z" />
</font>
</defs>
</svg>
